<?xml version="1.0" standalone="no"?>
<!DOCTYPE svg PUBLIC "-//W3C//DTD SVG 20010904//EN"
 "http://www.w3.org/TR/2001/REC-SVG-20010904/DTD/svg10.dtd">
<svg version="1.0" xmlns="http://www.w3.org/2000/svg"
 width="300.000000pt" height="300.000000pt" viewBox="0 0 300.000000 300.000000"
 preserveAspectRatio="xMidYMid meet">
<metadata>
Created by potrace 1.14, written by Peter Selinger 2001-2017
</metadata>
<g transform="translate(0.000000,300.000000) scale(0.100000,-0.100000)"
fill="#000000" stroke="none">
<path d="M1230 2965 c-588 -114 -1033 -534 -1179 -1113 -29 -115 -35 -171 -36
-347 0 -179 7 -246 40 -375 108 -418 392 -769 779 -963 129 -64 282 -115 399
-132 23 -4 62 -10 87 -15 102 -19 382 -2 545 34 49 11 197 66 272 101 84 39
218 120 248 148 7 7 26 21 41 32 46 31 205 194 255 260 139 181 245 422 285
645 18 102 24 361 10 460 -27 194 -103 407 -207 576 -129 213 -345 418 -559
532 -123 65 -293 130 -390 147 -14 2 -50 10 -80 16 -30 6 -131 12 -225 14
-141 1 -190 -2 -285 -20z m-287 -764 c19 -23 24 -41 25 -88 0 -32 2 -65 4 -73
2 -12 -10 -16 -60 -18 -62 -3 -63 -3 -58 22 3 14 7 29 9 33 3 5 1 18 -4 30 -7
18 -14 21 -51 18 -24 -1 -45 -3 -48 -4 -7 -1 -5 -605 2 -617 6 -9 84 -12 93
-2 8 7 8 51 0 75 -6 20 -3 21 50 25 31 1 60 -1 64 -5 5 -5 6 -23 2 -40 -4 -18
-6 -50 -5 -72 1 -30 -5 -47 -24 -67 -25 -27 -29 -28 -132 -28 -103 0 -107 1
-132 28 l-27 27 0 365 0 365 26 27 c26 27 30 28 134 28 106 0 107 0 132 -29z
m223 5 c-8 -32 -9 -696 -1 -705 4 -3 53 -5 110 -4 l103 1 -8 -29 c-10 -35 -10
-33 -10 -59 0 -19 -7 -20 -160 -20 l-160 0 7 28 c9 37 8 761 -1 790 -7 21 -5
22 59 22 66 0 67 0 61 -24z m378 2 c-10 -29 -11 -754 -1 -790 l7 -28 -65 0
c-64 0 -66 1 -59 23 9 27 8 769 -1 797 -6 19 -2 20 60 20 64 0 66 -1 59 -22z
m366 -3 c19 -21 24 -37 26 -88 1 -34 3 -69 5 -77 3 -12 -9 -16 -57 -18 l-62
-3 2 53 1 53 -47 1 c-28 0 -49 -4 -49 -10 -6 -47 -4 -594 2 -606 5 -11 21 -16
51 -15 l43 1 -1 52 -2 52 63 0 64 0 -8 -27 c-5 -16 -7 -50 -6 -76 2 -39 -2
-54 -22 -78 -25 -29 -25 -29 -131 -29 -99 1 -109 3 -134 25 l-28 24 0 372 0
372 28 23 c25 22 36 24 133 24 100 0 107 -1 129 -25z m224 3 c-5 -17 -9 -252
-5 -303 2 -17 121 285 121 306 0 17 8 19 76 19 l76 0 -24 -32 c-25 -33 -149
-320 -150 -348 -1 -12 86 -282 109 -340 3 -8 7 -21 9 -28 1 -8 14 -31 28 -53
l26 -39 -76 0 c-65 0 -75 2 -70 16 3 8 -13 72 -36 142 -23 70 -42 130 -42 134
-2 24 -16 12 -31 -29 -19 -48 -25 -183 -11 -239 6 -24 5 -24 -59 -24 -64 0
-66 1 -59 22 9 30 9 766 0 796 -7 21 -5 22 59 22 64 0 66 -1 59 -22z m-1264
-948 c0 -8 3 -26 7 -38 5 -22 3 -24 -28 -21 -19 2 -39 0 -44 -3 -7 -4 -10 -93
-10 -240 l1 -233 -36 0 -36 0 1 233 c1 140 -3 236 -9 239 -5 3 -24 6 -43 5
-31 -1 -33 0 -29 26 2 15 5 30 5 34 1 10 27 13 128 13 76 0 93 -3 93 -15z
m229 -4 c17 -15 24 -72 22 -183 0 -7 -1 -80 -2 -163 -1 -186 -2 -187 -106
-185 -58 1 -76 5 -86 19 -10 14 -14 75 -14 257 0 285 -4 276 119 273 30 -1 56
-8 67 -18z m418 -2 c9 -9 16 -35 16 -67 l2 -52 -35 0 c-30 0 -35 3 -36 25 -1
14 -2 30 -3 36 -1 12 -46 13 -58 0 -4 -4 -8 -95 -8 -202 0 -200 1 -207 41
-199 11 2 22 4 25 4 3 1 4 14 1 30 -5 34 3 40 44 34 30 -5 31 -6 28 -54 -3
-73 -18 -85 -104 -84 -108 1 -104 -9 -105 267 -1 268 1 275 68 280 65 5 108
-1 124 -18z m145 -3 c-6 -12 -8 -171 -3 -214 1 -4 15 -6 31 -5 34 3 32 -5 32
135 0 109 3 114 53 105 19 -3 20 -11 19 -275 l-1 -272 -35 -1 -35 -1 1 114 c1
65 -3 118 -9 121 -5 3 -21 6 -35 6 l-25 0 1 -120 1 -120 -36 1 -36 0 0 272 0
272 25 3 c42 5 61 -2 52 -21z m344 4 c-2 -7 -1 -30 4 -51 4 -22 11 -57 14 -79
3 -22 8 -53 12 -70 9 -49 55 -299 57 -315 2 -18 -63 -23 -68 -6 -2 6 -8 37
-15 69 l-12 58 -36 -3 -37 -3 -10 -65 -10 -65 -37 -1 c-42 0 -41 -2 -28 46 5
19 12 51 15 70 25 146 66 377 69 386 2 6 0 17 -5 25 -7 11 1 15 34 19 48 7 60
3 53 -15z m334 20 c1 0 3 -17 6 -37 l6 -38 -41 0 -41 0 0 -239 0 -238 -37 1
-38 1 2 229 c1 140 -2 235 -8 242 -5 7 -24 10 -44 7 -32 -4 -35 -3 -31 19 3
13 5 28 5 35 1 16 18 18 128 18 51 0 93 0 93 0z"/>
<path d="M1004 1202 c-21 -3 -21 -8 -22 -190 -1 -103 1 -195 4 -204 3 -12 13
-16 27 -14 12 3 25 5 30 5 4 1 7 91 7 200 0 209 0 211 -46 203z"/>
<path d="M1956 1033 c-20 -103 -20 -103 8 -103 22 0 26 4 21 23 -2 12 -7 40
-10 61 -7 50 -12 55 -19 19z"/>
</g>
</svg>
